<svg xmlns="http://www.w3.org/2000/svg" width="14.173" height="14.187" viewBox="0 0 14.173 14.187">
  <path id="instagram-svgrepo-com" d="M11.1,7.463a3.63,3.63,0,1,0,1.394.275A3.638,3.638,0,0,0,11.1,7.463Zm0,6.008a2.369,2.369,0,1,1,1.676-.694A2.369,2.369,0,0,1,11.1,13.471Zm4.641-6.159a.887.887,0,1,1-.26-.628A.887.887,0,0,1,15.743,7.312Zm2.4.887A4.18,4.18,0,0,0,17,5.226,4.18,4.18,0,0,0,14.03,4.055C12.876,4,9.326,4,8.173,4.055A4.2,4.2,0,0,0,5.2,5.2,4.18,4.18,0,0,0,4.055,8.173C4,9.326,4,12.876,4.055,14.03A4.18,4.18,0,0,0,5.2,17a4.2,4.2,0,0,0,2.973,1.145c1.171.071,4.686.071,5.857,0A4.18,4.18,0,0,0,17,17a4.18,4.18,0,0,0,1.145-2.973c.053-1.154.053-4.7,0-5.857Zm-1.509,7.1a2.4,2.4,0,0,1-1.349,1.349,15.971,15.971,0,0,1-4.189.284,15.9,15.9,0,0,1-4.18-.284A2.4,2.4,0,0,1,5.572,15.3,15.617,15.617,0,0,1,5.28,11.11a15.591,15.591,0,0,1,.293-4.189A2.352,2.352,0,0,1,6.921,5.564,15.9,15.9,0,0,1,11.1,5.28a15.974,15.974,0,0,1,4.189.284,2.4,2.4,0,0,1,1.349,1.349,15.617,15.617,0,0,1,.284,4.189,15.592,15.592,0,0,1-.284,4.189Z" transform="translate(-4.015 -4.015)" fill="#999"/>
</svg>
