<svg xmlns="http://www.w3.org/2000/svg" width="13.595" height="13.595" viewBox="0 0 13.595 13.595">
  <path id="linkedin-rounded-svgrepo-com" d="M-130.467,145h-11.47A1.062,1.062,0,0,0-143,146.062v11.47a1.062,1.062,0,0,0,1.062,1.062h11.47a1.062,1.062,0,0,0,1.062-1.062v-11.47A1.062,1.062,0,0,0-130.467,145Zm-7.636,9.641h-1.325V150.4h1.325Zm-.7-4.771h-.011a.736.736,0,0,1-.791-.735.743.743,0,0,1,.81-.735.74.74,0,0,1,.8.735A.739.739,0,0,1-138.8,149.87Zm6,4.771h-1.5v-2.193c0-.574-.234-.966-.751-.966a.757.757,0,0,0-.717.52,1,1,0,0,0-.032.348v2.291h-1.49s.019-3.887,0-4.24h1.49v.666a1.356,1.356,0,0,1,1.322-.706c.943,0,1.681.611,1.681,1.922Z" transform="translate(143 -145)" fill="#999"/>
</svg>
