<svg xmlns="http://www.w3.org/2000/svg" width="52.353" height="40" viewBox="0 0 52.353 40">
  <path id="quote" d="M7.806,41.965C4.865,38.729,3.1,35.2,3.1,29.318,3.1,19.024,10.453,9.906,20.747,5.2l2.647,3.824c-9.706,5.294-11.765,12.059-12.353,16.471a8.722,8.722,0,0,1,5.588-.882,10.272,10.272,0,0,1,9.412,10.294A11.6,11.6,0,0,1,23.1,42.259,9.755,9.755,0,0,1,15.747,45.2a11.568,11.568,0,0,1-7.941-3.235Zm29.412,0c-2.941-3.235-4.706-6.765-4.706-12.647,0-10.294,7.353-19.412,17.647-24.118l2.647,3.824C43.1,14.318,41.041,21.082,40.453,25.494a8.722,8.722,0,0,1,5.588-.882,10.272,10.272,0,0,1,9.412,10.294,11.6,11.6,0,0,1-2.941,7.353A9.334,9.334,0,0,1,45.159,45.2a11.568,11.568,0,0,1-7.941-3.235Z" transform="translate(-3.1 -5.2)" fill="#fefefe"/>
</svg>
