<svg xmlns="http://www.w3.org/2000/svg" width="16.375" height="13.309" viewBox="0 0 16.375 13.309">
  <path id="twitter-svgrepo-com" d="M10.15,20.368A9.487,9.487,0,0,1,5,18.855a6.735,6.735,0,0,0,4.973-1.39,3.358,3.358,0,0,1-3.137-2.335,3.282,3.282,0,0,0,.631.061,3.5,3.5,0,0,0,.888-.116,3.363,3.363,0,0,1-2.7-3.293v-.044a3.333,3.333,0,0,0,1.52.42A3.362,3.362,0,0,1,6.14,7.673a9.535,9.535,0,0,0,6.924,3.509A3.362,3.362,0,0,1,18.789,8.12a6.778,6.778,0,0,0,2.133-.814,3.381,3.381,0,0,1-1.476,1.859,6.758,6.758,0,0,0,1.929-.528A6.909,6.909,0,0,1,19.7,10.376c.006.144.01.289.01.434a9.5,9.5,0,0,1-9.56,9.558" transform="translate(-5 -7.06)" fill="#999"/>
</svg>
